# xmcd CD database file
#
# Track frame offsets:
#	187
#	13057
#	23552
#	38055
#	55517
#	66740
#	83880
#	97132
#	110647
#	130275
#
# Disc length: 1956 seconds
#
# Revision: 0
# Processed by: cddbd v1.5.1PL0 Copyright (c) Steve Scherf et al.
# Submitted via: CDex 1.51
#
DISCID=8507a20a
DTITLE=Pee Wee Russell - Oliver Nelson - The Spirit of '67
DYEAR=1967
DGENRE=Jazz
TTITLE0=Love is just around the corner
TTITLE1=This is it
TTITLE2=Memories of you
TTITLE3=Pee Wee's Blues
TTITLE4=The shadow of your smile
TTITLE5=Ja-Da
TTITLE6=A good man is hard to find
TTITLE7=Bopol
TTITLE8=I'm coming Virginia
TTITLE9=Six and Four
EXTD=YEAR: 1967
EXTT0=
EXTT1=
EXTT2=
EXTT3=
EXTT4=
EXTT5=
EXTT6=
EXTT7=
EXTT8=
EXTT9=
PLAYORDER=
